<svg xmlns="http://www.w3.org/2000/svg" viewBox="0 0 58.8 50.3"><path d="M12.5 21.4c-3.3.4-6.8-1.4-8.8-4.3C2.1 14.8 2 12.5 2 11.4 2 4.6 6.4.4 12.4.4S25 6.9 25 18.1 18.3 42.5 5 49.5L.7 41.3c1.8-.8 8.1-3.8 11.4-10.9 1.7-3.8 2-7.2 1.9-9.3-.3.1-.8.2-1.5.3Zm33.2 0c-3.3.4-6.8-1.4-8.8-4.3-1.6-2.3-1.7-4.6-1.7-5.7 0-6.8 4.3-11 10.4-11s12.6 6.5 12.6 17.7-6.7 24.4-20 31.4l-4.5-8.3c1.8-.8 8.1-3.8 11.4-10.9 1.7-3.8 2-7.2 2-9.3-.3.1-.8.2-1.5.3Z" style="fill:none;stroke:#d5874c;stroke-miterlimit:10" vector-effect="non-scaling-stroke"/></svg>
